HIERARCHY
ROOT Hips
{
	OFFSET 20.463800 -43.778099 7.826296
	CHANNELS 6 Xposition Yposition Zposition Zrotation Xrotation Yrotation
	JOINT Chest
	{
		OFFSET -0.076000 -8.347801 1.394599
		CHANNELS 6 Xposition Yposition Zposition Zrotation Xrotation Yrotation
		JOINT Chest2
		{
			OFFSET 0.000000 -3.321602 0.000000
			CHANNELS 6 Xposition Yposition Zposition Zrotation Xrotation Yrotation
			JOINT Neck
			{
				OFFSET 0.000000 -7.732101 -0.000001
				CHANNELS 6 Xposition Yposition Zposition Zrotation Xrotation Yrotation
				JOINT Head
				{
					OFFSET 0.000000 -2.173897 0.000000
					CHANNELS 6 Xposition Yposition Zposition Zrotation Xrotation Yrotation
					End Site
					{
						OFFSET 0.000000 -10.080803 -0.000001
					}
				}
			}
			JOINT LeftCollar
			{
				OFFSET 2.718100 -4.670502 -2.003100
				CHANNELS 6 Xposition Yposition Zposition Zrotation Xrotation Yrotation
				JOINT LeftShoulder
				{
					OFFSET 4.147100 0.000000 0.000000
					CHANNELS 6 Xposition Yposition Zposition Zrotation Xrotation Yrotation
					JOINT LeftElbow
					{
						OFFSET 0.000000 10.254799 0.000001
						CHANNELS 6 Xposition Yposition Zposition Zrotation Xrotation Yrotation
						JOINT LeftWrist
						{
							OFFSET 0.000000 12.664398 0.000001
							CHANNELS 6 Xposition Yposition Zposition Zrotation Xrotation Yrotation
							End Site
							{
								OFFSET 0.000000 2.173901 0.000000
							}
						}
					}
				}
			}
			JOINT RightCollar
			{
				OFFSET -2.489500 -4.979698 -2.085300
				CHANNELS 6 Xposition Yposition Zposition Zrotation Xrotation Yrotation
				JOINT RightShoulder
				{
					OFFSET -4.160400 0.000000 0.000000
					CHANNELS 6 Xposition Yposition Zposition Zrotation Xrotation Yrotation
					JOINT RightElbow
					{
						OFFSET 0.000000 10.253998 0.000001
						CHANNELS 6 Xposition Yposition Zposition Zrotation Xrotation Yrotation
						JOINT RightWrist
						{
							OFFSET 0.000000 12.768700 0.000001
							CHANNELS 6 Xposition Yposition Zposition Zrotation Xrotation Yrotation
							End Site
							{
								OFFSET 0.000000 2.173901 0.000000
							}
						}
					}
				}
			}
		}
	}
	JOINT LeftHip
	{
		OFFSET 2.212400 2.641499 -0.073599
		CHANNELS 6 Xposition Yposition Zposition Zrotation Xrotation Yrotation
		JOINT LeftKnee
		{
			OFFSET 0.000000 17.950598 0.000001
			CHANNELS 6 Xposition Yposition Zposition Zrotation Xrotation Yrotation
			JOINT LeftAnkle
			{
				OFFSET 0.000000 19.053900 0.000001
				CHANNELS 6 Xposition Yposition Zposition Zrotation Xrotation Yrotation
				End Site
				{
					OFFSET 0.000000 0.000000 -8.430400
				}
			}
		}
	}
	JOINT RightHip
	{
		OFFSET -2.162800 2.581299 -0.306099
		CHANNELS 6 Xposition Yposition Zposition Zrotation Xrotation Yrotation
		JOINT RightKnee
		{
			OFFSET 0.000000 18.327099 0.000001
			CHANNELS 6 Xposition Yposition Zposition Zrotation Xrotation Yrotation
			JOINT RightAnkle
			{
				OFFSET 0.000000 18.423401 0.000001
				CHANNELS 6 Xposition Yposition Zposition Zrotation Xrotation Yrotation
				End Site
				{
					OFFSET 0.000000 0.000001 -8.995800
				}
			}
		}
	}
}
MOTION
Frames: 4
Frame Time: 0.041667
-44.099312 -44.095299 32.814922 5.046599 3.729000 3.564103 -0.076001 -8.347797 1.394595 4.182501 -1.247602 -3.175003 0.000010 -3.321609 0.000004 -0.280400 -3.645004 10.159209 0.000001 -7.732087 -0.000003 0.529203 7.749304 -56.868992 0.000000 -2.173905 0.000000 10.182296 2.432402 -7.932307 2.718111 -4.670499 -2.003100 3.680398 0.089100 -1.723502 4.147112 0.000004 0.000002 -114.804606 -14.924940 -21.182206 0.000000 10.254800 0.000002 -7.236901 -8.422788 -60.675084 -0.000004 12.664398 -0.000004 16.316347 -47.976051 -67.329607 -2.489494 -4.979699 -2.085300 22.305101 1.552900 5.746704 -4.160398 -0.000012 -0.000009 118.287183 -14.410215 42.047693 -0.000005 10.254017 -0.000001 1.160896 -8.548907 55.969579 -0.000009 12.768704 0.000003 0.045926 -39.145105 62.506299 2.212396 2.641505 -0.073596 -69.487893 -14.326236 -173.007626 -0.000010 17.950617 -0.000007 79.770811 -172.531767 -8.680026 -0.000001 19.053917 0.000008 34.032551 -44.690348 -37.252931 -2.162798 2.581305 -0.306099 0.720211 -11.326950 4.002719 -0.000009 18.327095 -0.000009 -21.346875 29.348469 33.700959 -0.000004 18.423397 -0.000003 8.241281 6.242280 -17.023031 
-44.516884 -43.998497 32.955723 5.014700 4.060401 4.166101 -0.075994 -8.347795 1.394598 3.975904 -2.039104 -3.779602 0.000005 -3.321615 -0.000006 -0.302799 -3.785301 11.298610 0.000007 -7.732094 0.000007 -0.337095 5.040402 -59.700600 0.000010 -2.173889 0.000007 10.119093 1.728604 -8.857009 2.718106 -4.670504 -2.003094 4.412797 1.749904 -0.100598 4.147102 0.000007 0.000007 -112.635092 -8.933230 -16.257703 -0.000009 10.254797 0.000005 -5.415505 -5.363991 -74.590392 -0.000003 12.664402 -0.000010 19.197459 -35.794020 -58.930298 -2.489500 -4.979688 -2.085295 21.504195 2.780005 3.932704 -4.160400 -0.000006 -0.000002 114.315517 -9.035792 35.516611 -0.000004 10.253994 -0.000004 0.682794 -7.624409 48.472784 -0.000002 12.768696 0.000002 8.691614 -26.166685 73.624795 2.212401 2.641501 -0.073601 -70.612483 -14.702534 -173.472325 -0.000000 17.950615 -0.000003 76.045906 -171.981459 -7.472127 0.000007 19.053904 -0.000001 35.377054 -47.136857 -36.333946 -2.162795 2.581298 -0.306101 0.444414 -12.488657 5.204424 -0.000005 18.327087 -0.000009 -21.331975 31.167171 32.628060 -0.000006 18.423395 0.000002 10.069485 5.409179 -16.710140 
-44.968185 -43.989101 33.140228 4.883301 4.735608 3.927101 -0.075997 -8.347795 1.394599 4.221601 -2.692503 -3.469105 -0.000001 -3.321594 0.000003 -0.344500 -3.780200 11.678310 0.000010 -7.732086 0.000001 -2.282799 3.228898 -62.863586 0.000000 -2.173898 0.000003 11.279394 1.670301 -9.229513 2.718112 -4.670493 -2.003095 3.373798 -0.314200 -1.837502 4.147081 -0.000008 -0.000000 -109.313592 -8.807435 -14.159503 -0.000009 10.254797 0.000004 -3.755803 -4.081091 -70.121584 0.000000 12.664396 0.000006 12.979240 -34.267421 -68.264032 -2.489487 -4.979687 -2.085297 21.004500 2.739402 2.701305 -4.160400 -0.000008 -0.000006 109.787498 -4.470293 30.204811 0.000008 10.253995 0.000005 0.764694 -5.208410 44.974395 -0.000008 12.768700 -0.000004 3.276110 -33.954424 64.152381 2.212392 2.641500 -0.073605 -71.296185 -16.133433 -173.137222 0.000009 17.950603 -0.000003 73.308796 -172.093856 -6.762333 0.000002 19.053904 0.000009 35.455666 -47.104745 -36.616132 -2.162801 2.581295 -0.306099 0.331818 -13.754369 6.574233 -0.000003 18.327095 -0.000002 -21.609865 32.112968 32.108248 -0.000005 18.423397 0.000001 9.022879 5.181884 -16.579943 
-45.321487 -43.939999 33.290123 4.477201 4.224504 5.551203 -0.076001 -8.347795 1.394591 4.009900 -3.077002 -5.169707 -0.000002 -3.321604 -0.000002 -0.272100 -3.340005 10.846211 0.000005 -7.732090 -0.000000 -2.085596 2.277701 -62.370590 -0.000002 -2.173892 0.000000 11.103996 0.488700 -8.853505 2.718108 -4.670489 -2.003103 4.117099 1.917203 0.460301 4.147108 0.000014 0.000000 -108.005010 -5.677526 -13.012305 0.000005 10.254797 0.000005 -2.349205 -2.125288 -72.142090 0.000002 12.664390 0.000004 14.946260 -33.521824 -66.112625 -2.489491 -4.979681 -2.085301 21.124001 1.685802 3.558805 -4.160416 0.000003 -0.000007 107.549497 -3.891093 25.237009 0.000008 10.253981 0.000000 0.603693 -3.528307 47.389888 -0.000007 12.768688 0.000000 2.531630 -32.106595 62.945289 2.212399 2.641508 -0.073603 -71.483496 -15.476934 -173.068032 -0.000001 17.950609 -0.000004 70.731889 -171.372766 -7.093926 -0.000001 19.053905 0.000003 36.379852 -46.848548 -36.346333 -2.162798 2.581298 -0.306108 0.266214 -13.306867 5.058725 0.000002 18.327099 -0.000004 -22.487775 31.743075 32.299350 -0.000006 18.423401 -0.000005 10.579379 5.052685 -15.894040 
